<?xml version="1.0" encoding="UTF-8" standalone="no"?>

<svg
   mtc:dpi="90"
   xmlns="http://www.w3.org/2000/svg"
   version="1.1"
   width="1.98687in"
   height="2.36625in"
   viewBox="0 0 178.819 212.962"
   xmlns:inkscape="http://www.inkscape.org/namespaces/inkscape"
   xmlns:xlink="http://www.w3.org/1999/xlink"
   xmlns:mtc="http://www.make-the-cut.com/namespaces/make-the-cut"
   xmlns:knk="http://knk-force.com/c3svg/1.1">
<g
   inkscape:groupmode="layer"
   label="Default Layer"
   id="Default Layer"
   knk:passes="1"
   knk:depth="0"
   knk:end_depth="0"
   knk:blade-offset="0.0"
   knk:cut-speed="0"
   knk:seek-speed="0"
   knk:plunge-speed="0"
   knk:lift-speed="0"
   knk:tool-index="0">
  <path
     label="Shape #65*"
     id="Shape #65*"
     fill="#997a5b"
     stroke="#000000"
     stroke-linejoin="round"
     d="M73.6365,78.3912 C75.4544,74.6357 75.5227,69.4773 70.3978,65.9834 C67.0551,64.2362 62.4729,64.0185 59.3158,70.0881 C57.8481,72.72 59.526,75.5738 59.6656,78.3138 C48.3017,69.6738 47.9639,58.9351 54.2956,48.5105 C62.2588,39.0072 72.0932,37.5932 81.7623,47.5596 C86.7539,53.8195 87.2124,61.3219 85.4909,67.16 C84.8111,69.6834 84.2295,72.6847 80.0164,76.0293 C78.0579,77.4721 75.8271,78.2424 73.6365,78.3912 z M92.8353,70.1933 C89.7043,63.3706 88.692,56.3929 95.4544,47.8033 C103.053,40.7356 110.824,39.9222 119.432,47.7579 C126.063,55.8277 126.902,64.6407 120.387,74.0731 C118.792,76.0683 117.026,77.4755 115.204,78.4958 C118.518,73.9569 119.417,68.116 112.636,63.3735 C109.255,61.7523 104.797,61.8836 101.63,67.1618 C100.391,69.3679 99.7571,73.6274 101.244,77.5723 C98.2732,75.8114 95.4428,73.5382 92.8353,70.1933 z M75.0783,84.0357 L99.466,83.4618 L87.7216,107.112 L75.0783,84.0357 z M24.9962,167.114 C10.648,148.676 8.65461,128.037 18.2784,106.88 C19.8421,103.724 21.7053,100.749 23.842,97.9847 C31.7495,93.2543 40.2033,92.1481 49.4677,102.181 C57.2598,111.948 54.0375,123.193 51.4546,133.988 C49.455,140.548 46.2944,147.188 41.2781,153.501 C36.2908,159.733 30.7261,164.053 24.9962,167.114 z M150.516,167.744 C147.539,166.46 144.712,164.83 142.085,162.872 C122.488,146.417 120.264,126.848 126.099,107.211 C127.857,103.21 134.702,97.9025 139.781,97.8571 C143.577,97.536 147.516,98.2671 151.624,101.37 C165.055,120.257 166.454,140.32 155.026,161.387 C153.685,163.629 152.178,165.751 150.516,167.744 z M153.861,88.0823 C145.714,59.0258 135.68,30.2912 123.545,1.90477 C117.327,7.91427 111.114,13.9455 104.906,19.998 C95.2697,17.3823 85.0296,17.7068 74.7755,21.9024 C70.4842,18.9081 66.1929,15.9136 62.4624,12.2633 C58.732,8.61277 55.5624,4.30612 52.3927,5.36442e-006 C43.8869,28.238 34.4475,56.3222 24.0266,84.2481 C3.71498,100.718 -0.112492,118.623 -0.00553608,136.814 C1.09274,151.472 4.08387,166.296 21.4475,182.06 C23.4866,181 25.5244,179.953 27.5646,178.88 C30.6849,183.505 34.2793,187.812 38.2337,191.668 C61.1175,213.01 86.4715,217.369 112.302,208.886 C117.329,207.113 122.189,204.765 126.781,201.893 C131.373,199.022 135.696,195.626 139.612,191.815 C141.702,187.983 143.648,184.119 145.459,180.224 C146.803,180.955 147.455,181.328 149.267,183.373 C151.557,185.505 156.223,183.998 157.068,180.679 C157.205,180.272 157.299,179.849 157.349,179.42 C176.818,163.577 179.845,146.167 178.558,128.465 C176.995,117.012 173.712,104.995 160.244,92.7234 C158.236,90.9983 156.104,89.4491 153.861,88.0823 z " />
</g>
</svg>
